<?xml version="1.0" standalone="no"?><!DOCTYPE svg PUBLIC "-//W3C//DTD SVG 1.1//EN" "http://www.w3.org/Graphics/SVG/1.1/DTD/svg11.dtd"><svg t="1739000474889" class="icon" viewBox="0 0 1267 1024" version="1.1" xmlns="http://www.w3.org/2000/svg" p-id="6507" xmlns:xlink="http://www.w3.org/1999/xlink" width="247.4609375" height="200"><path d="M1219.866842 681.143781a447.17412 447.17412 0 0 0-79.772512-283.830404C1139.607318 266.307237 1120.126851 74.13243 1019.023228 18.028685 930.484505-30.964689 835.614631 29.229954 769.478446 90.690827 709.088998 77.931121 650.160585 71.599969 638.374903 81.729812c-19.480467 17.045409-9.058417 61.850483 3.506484 77.921868h-8.279198a659.1216 659.1216 0 0 0-68.863451 3.603887C513.797317 99.359635 374.511978-51.808789 248.278552 18.028685c-101.298428 56.103745-120.486688 248.278552-121.168505 379.284692a447.368924 447.368924 0 0 0-79.67511 283.830404C22.402537 699.45542-8.76621 733.935847 2.337656 787.994143c11.883085 58.441401 69.058255 71.006302 105.486729 73.246555 108.603603 144.35026 341.492586 162.759302 525.972608 162.759302s417.271603-18.409041 525.972609-162.759302c36.428473-2.240254 93.506242-15.194764 105.486728-73.246555 10.714257-54.058296-20.357088-88.538722-45.389488-106.850362zM253.733082 836.305701c-31.947966 0-57.759585-5.064921-57.759584-30.194724s25.811619-45.48689 57.759584-45.486891S311.687472 780.981174 311.687472 806.110977s-26.103826 30.194724-57.95439 30.194724zM418.83004 760.624086c-35.746657-2.045449-50.259605-21.525916-52.305054-37.207691a190.713772 190.713772 0 0 1 5.941543-43.441442c-46.850523 8.474003-90.291964 14.61035-104.025694 14.99996-46.168707 1.168828-50.649214-87.662101-26.103826-100.032198s254.317496-32.434978 270.778491-20.454491c41.395992 30.779138-41.493395 189.155334-94.28546 186.135862z m215.25916 95.649093c-41.590797 0-75.292005-72.17513-75.292005-112.110087s53.37648-42.857027 74.804994-42.857028 75.389407 2.727265 75.389407 42.564821-33.79861 112.402294-75.389407 112.402294z m267.174605-132.856784c-2.142851 15.681776-16.558397 35.162243-52.402456 37.207691-53.181675 3.019472-136.363269-155.843736-94.188058-186.135862 16.363592-11.980487 246.330505 8.084394 270.778491 20.454491s20.064881 101.201026-26.201228 100.032198c-13.636327 0-57.175171-6.525956-104.025694-14.99996a192.174807 192.174807 0 0 1 6.038945 43.441442z m112.304892 112.889306c-31.947966 0-57.759585-5.064921-57.759585-30.194724s25.811619-45.48689 57.759585-45.486891 57.856987 20.357088 57.856987 45.486891-26.006423 30.194724-57.856987 30.194724z" fill="#7CCEFE" p-id="6508"></path></svg>